<svg width="230" height="135" viewBox="0 0 230 135" fill="none" xmlns="http://www.w3.org/2000/svg">
<path d="M51 104.515V35.0154C51 32.682 52.5 27.0154 58.5 23.0154C64.5 19.0154 68.6667 16.0154 70 15.0154" stroke="url(#paint0_linear_48_18)" stroke-width="6"/>
<path d="M21.5 103.515V80.6361C21.5 80.6361 22.5 75.5154 27 75.5154C31.5 75.5154 32.5 80.6361 32.5 80.6361V103.515" stroke="url(#paint1_linear_48_18)" stroke-width="4"/>
<path d="M3 104.515V76.0155C3 67.0154 14.5 56.5154 27.5 56.5154C39 56.5154 50.5 68.0154 50.5 76.0155V104.515" stroke="url(#paint2_linear_48_18)" stroke-width="6"/>
<path d="M22.7778 51.4228V53.2746V56.5154H30.1852V53.2746V51.4228H33.4259C33.4259 49.108 32.963 44.0154 26.9444 44.0154C20.9259 44.0154 20 49.108 20 51.4228H22.7778Z" fill="url(#paint3_linear_48_18)" stroke="url(#paint4_linear_48_18)" stroke-width="0.925926"/>
<mask id="path-5-inside-1_48_18" fill="white">
<path d="M76.4243 26.0648C75.5492 26.0745 74.6967 26.3414 73.9745 26.8316C73.2523 27.3219 72.6929 28.0135 72.367 28.8189C72.0411 29.6244 71.9633 30.5076 72.1435 31.3568C72.3237 32.206 72.7538 32.9831 73.3794 33.5898C74.005 34.1966 74.798 34.6056 75.6581 34.7654C76.5182 34.9251 77.4068 34.8283 78.2115 34.4872C79.0163 34.1461 79.701 33.576 80.1791 32.849C80.6572 32.122 80.9072 31.2708 80.8975 30.403L76.4732 30.4524L76.4243 26.0648Z"/>
</mask>
<path d="M76.4243 26.0648C75.5492 26.0745 74.6967 26.3414 73.9745 26.8316C73.2523 27.3219 72.6929 28.0135 72.367 28.8189C72.0411 29.6244 71.9633 30.5076 72.1435 31.3568C72.3237 32.206 72.7538 32.9831 73.3794 33.5898C74.005 34.1966 74.798 34.6056 75.6581 34.7654C76.5182 34.9251 77.4068 34.8283 78.2115 34.4872C79.0163 34.1461 79.701 33.576 80.1791 32.849C80.6572 32.122 80.9072 31.2708 80.8975 30.403L76.4732 30.4524L76.4243 26.0648Z" fill="url(#paint5_linear_48_18)" stroke="url(#paint6_linear_48_18)" stroke-width="2" mask="url(#path-5-inside-1_48_18)"/>
<path d="M57.5 0.515381V23.0154H83V42.5154C79 51.3154 72 52.182 69 52.0154V58.5154C81.4 58.1154 86.8333 50.3487 88 46.5154C89.6667 48.3487 94.5 49.0154 96.5 46.0154C98.5 43.0154 96 39.682 94.5 38.5154L102.5 30.5154H90V13.5154C89.6 4.31538 81.8333 1.34871 78 1.01538V13.5154C74.8 3.51538 63 0.682048 57.5 0.515381Z" fill="url(#paint7_linear_48_18)" stroke="url(#paint8_linear_48_18)"/>
<path d="M63.7953 113.351V73.595H69.3342V75.9762C69.9899 75.217 70.7836 74.5613 71.7154 74.0092C72.6472 73.457 73.7515 73.1809 75.0284 73.1809C76.5814 73.1809 77.8065 73.595 78.7037 74.4233C79.6355 75.217 80.3257 76.2351 80.7743 77.4774C81.223 78.6853 81.5163 79.9277 81.6544 81.2045C81.7924 82.4469 81.8614 83.5167 81.8614 84.414V91.6611C81.8614 93.7662 81.6544 95.7678 81.2402 97.6659C80.8261 99.5295 80.0669 101.048 78.9626 102.221C77.8927 103.36 76.3743 103.93 74.4072 103.93C73.3374 103.93 72.3884 103.671 71.5601 103.153C70.7319 102.601 69.9899 101.98 69.3342 101.289V113.351H63.7953ZM73.3201 99.5812C74.2864 99.5812 74.9766 99.2361 75.3908 98.5459C75.8049 97.8212 76.0637 96.8549 76.1672 95.6471C76.2708 94.4392 76.3225 93.1106 76.3225 91.6611V84.414C76.3225 83.1716 76.2535 82.0328 76.1155 80.9975C75.9774 79.9277 75.6841 79.0822 75.2355 78.461C74.7868 77.8398 74.0794 77.5292 73.1131 77.5292C72.3884 77.5292 71.6982 77.6845 71.0425 77.9951C70.3868 78.3057 69.8174 78.668 69.3342 79.0822V98.2353C69.8519 98.6149 70.4385 98.9428 71.0942 99.2189C71.7499 99.4604 72.4919 99.5812 73.3201 99.5812ZM95.1283 103.93C92.9196 103.93 91.1769 103.481 89.9 102.584C88.6231 101.686 87.7086 100.409 87.1564 98.753C86.6388 97.0965 86.38 95.1467 86.38 92.9035V84.2069C86.38 81.9638 86.6388 80.0139 87.1564 78.3574C87.7086 76.701 88.6231 75.4241 89.9 74.5268C91.1769 73.6296 92.9196 73.1809 95.1283 73.1809C97.3369 73.1809 99.0625 73.6296 100.305 74.5268C101.582 75.4241 102.479 76.701 102.997 78.3574C103.549 80.0139 103.825 81.9638 103.825 84.2069V92.9035C103.825 95.1467 103.549 97.0965 102.997 98.753C102.479 100.409 101.582 101.686 100.305 102.584C99.0625 103.481 97.3369 103.93 95.1283 103.93ZM95.1283 99.84C96.1981 99.84 96.9401 99.5295 97.3542 98.9083C97.8028 98.2871 98.0617 97.4761 98.1307 96.4753C98.2342 95.44 98.286 94.3702 98.286 93.2659V83.8963C98.286 82.7575 98.2342 81.6877 98.1307 80.6869C98.0617 79.6861 97.8028 78.8751 97.3542 78.2539C96.9401 77.5982 96.1981 77.2704 95.1283 77.2704C94.0585 77.2704 93.2993 77.5982 92.8506 78.2539C92.402 78.8751 92.1259 79.6861 92.0224 80.6869C91.9534 81.6877 91.9188 82.7575 91.9188 83.8963V93.2659C91.9188 94.3702 91.9534 95.44 92.0224 96.4753C92.1259 97.4761 92.402 98.2871 92.8506 98.9083C93.2993 99.5295 94.0585 99.84 95.1283 99.84ZM113.184 103.93C112.011 103.93 111.096 103.619 110.441 102.998C109.785 102.377 109.319 101.6 109.043 100.668C108.801 99.7365 108.681 98.7875 108.681 97.8212V73.595H114.22V96.1647C114.22 97.2345 114.375 98.08 114.685 98.7012C114.996 99.2879 115.634 99.5812 116.601 99.5812C117.222 99.5812 117.86 99.4087 118.516 99.0636C119.206 98.684 119.862 98.2353 120.483 97.7177V73.595H126.022V103.515H120.483V100.565C119.517 101.497 118.413 102.29 117.17 102.946C115.962 103.602 114.634 103.93 113.184 103.93ZM132.204 103.515V61.5855H137.743V103.515H132.204ZM151.488 103.93C149.935 103.93 148.675 103.636 147.709 103.049C146.777 102.463 146.087 101.635 145.638 100.565C145.224 99.4949 145.017 98.2353 145.017 96.7859V77.2704H141.859V73.595H145.017V64.8467H150.556V73.595H155.37V77.2704H150.556V96.4235C150.556 97.5969 150.746 98.4424 151.125 98.96C151.505 99.4432 152.23 99.6847 153.3 99.6847C153.576 99.6847 153.886 99.6675 154.231 99.633C154.611 99.5985 154.973 99.564 155.318 99.5295V103.619C154.628 103.722 153.99 103.791 153.403 103.826C152.816 103.895 152.178 103.93 151.488 103.93ZM159.595 103.515V73.595H165.134V77.8398C166.238 76.0108 167.343 74.7856 168.447 74.1645C169.551 73.5433 170.656 73.2327 171.76 73.2327C171.898 73.2327 172.019 73.2327 172.122 73.2327C172.26 73.2327 172.433 73.2499 172.64 73.2844V79.3928C172.226 79.2202 171.743 79.0822 171.191 78.9786C170.673 78.8406 170.138 78.7716 169.586 78.7716C168.723 78.7716 167.929 78.9786 167.205 79.3928C166.514 79.7724 165.824 80.5316 165.134 81.6704V103.515H159.595ZM176.434 103.515V73.595H181.973V103.515H176.434ZM176.434 69.1432V63.3455H181.973V69.1432H176.434ZM195.821 112.885C193.992 112.885 192.335 112.678 190.851 112.264C189.402 111.884 188.246 111.28 187.383 110.452C186.555 109.624 186.141 108.537 186.141 107.191C186.141 106.155 186.382 105.241 186.865 104.447C187.348 103.688 187.97 103.032 188.729 102.48C189.488 101.928 190.282 101.497 191.11 101.186L193.698 101.548C193.25 101.962 192.818 102.394 192.404 102.842C191.99 103.257 191.645 103.688 191.369 104.137C191.093 104.62 190.955 105.137 190.955 105.69C190.955 106.587 191.334 107.26 192.094 107.708C192.887 108.157 194.285 108.381 196.287 108.381C198.254 108.381 199.703 108.14 200.635 107.657C201.601 107.208 202.084 106.483 202.084 105.482C202.084 104.861 201.963 104.344 201.722 103.93C201.48 103.55 201.066 103.239 200.48 102.998C199.893 102.756 199.047 102.584 197.943 102.48L191.421 101.652C190.075 101.479 189.074 101.048 188.418 100.358C187.763 99.6675 187.435 98.9083 187.435 98.08C187.435 96.8377 187.78 95.7851 188.47 94.9223C189.195 94.0596 190.161 93.0933 191.369 92.0235L193.232 93.4729C193.025 93.749 192.767 94.1459 192.456 94.6635C192.145 95.1467 191.99 95.6298 191.99 96.1129C191.99 96.4926 192.18 96.8031 192.559 97.0447C192.974 97.2863 193.612 97.4416 194.475 97.5106L199.496 97.9765C201.843 98.1836 203.585 98.891 204.724 100.099C205.863 101.307 206.433 103.032 206.433 105.275C206.433 106.932 206.036 108.33 205.242 109.468C204.483 110.607 203.327 111.453 201.774 112.005C200.221 112.592 198.236 112.885 195.821 112.885ZM196.028 94.3012C193.992 94.3012 192.335 93.8525 191.058 92.9553C189.781 92.058 188.832 90.8156 188.211 89.2282C187.625 87.6407 187.331 85.8289 187.331 83.7928C187.331 81.4806 187.659 79.548 188.315 77.9951C188.97 76.4076 189.937 75.217 191.214 74.4233C192.525 73.595 194.13 73.1809 196.028 73.1809C197.995 73.1809 199.6 73.6813 200.842 74.6821C202.084 75.6484 202.999 76.9425 203.585 78.5645C204.172 80.1865 204.465 81.981 204.465 83.9481C204.465 85.9842 204.189 87.796 203.637 89.3835C203.12 90.9364 202.24 92.1443 200.997 93.007C199.789 93.8698 198.133 94.3012 196.028 94.3012ZM196.028 90.3152C196.787 90.3152 197.391 90.1772 197.84 89.9011C198.288 89.5905 198.616 89.1591 198.823 88.607C199.065 88.0548 199.22 87.3819 199.289 86.5881C199.392 85.7599 199.444 84.8281 199.444 83.7928C199.444 82.7575 199.41 81.8257 199.341 80.9975C199.272 80.1692 199.116 79.479 198.875 78.9269C198.633 78.3402 198.288 77.8916 197.84 77.581C197.391 77.2704 196.804 77.1151 196.08 77.1151C195.32 77.1151 194.699 77.2704 194.216 77.581C193.767 77.857 193.405 78.2884 193.129 78.8751C192.887 79.4273 192.715 80.1175 192.611 80.9457C192.542 81.774 192.508 82.723 192.508 83.7928C192.508 84.7246 192.542 85.5873 192.611 86.3811C192.715 87.1748 192.887 87.865 193.129 88.4517C193.37 89.0384 193.716 89.5042 194.164 89.8493C194.647 90.1599 195.269 90.3152 196.028 90.3152ZM203.43 78.6163L202.136 76.5457C202.412 76.0625 203.033 75.4586 204 74.7339C204.966 74.0092 206.001 73.4052 207.106 72.9221L208.555 76.5457C208.072 76.6492 207.416 76.839 206.588 77.1151C205.794 77.3912 205.069 77.6845 204.414 77.9951C203.758 78.2712 203.43 78.4782 203.43 78.6163ZM218.728 103.93C216.519 103.93 214.777 103.481 213.5 102.584C212.223 101.686 211.308 100.409 210.756 98.753C210.239 97.0965 209.98 95.1467 209.98 92.9035V84.2069C209.98 81.9638 210.239 80.0139 210.756 78.3574C211.308 76.701 212.223 75.4241 213.5 74.5268C214.777 73.6296 216.519 73.1809 218.728 73.1809C220.937 73.1809 222.662 73.6296 223.905 74.5268C225.181 75.4241 226.079 76.701 226.596 78.3574C227.149 80.0139 227.425 81.9638 227.425 84.2069V92.9035C227.425 95.1467 227.149 97.0965 226.596 98.753C226.079 100.409 225.181 101.686 223.905 102.584C222.662 103.481 220.937 103.93 218.728 103.93ZM218.728 99.84C219.798 99.84 220.54 99.5295 220.954 98.9083C221.403 98.2871 221.661 97.4761 221.73 96.4753C221.834 95.44 221.886 94.3702 221.886 93.2659V83.8963C221.886 82.7575 221.834 81.6877 221.73 80.6869C221.661 79.6861 221.403 78.8751 220.954 78.2539C220.54 77.5982 219.798 77.2704 218.728 77.2704C217.658 77.2704 216.899 77.5982 216.45 78.2539C216.002 78.8751 215.726 79.6861 215.622 80.6869C215.553 81.6877 215.519 82.7575 215.519 83.8963V93.2659C215.519 94.3702 215.553 95.44 215.622 96.4753C215.726 97.4761 216.002 98.2871 216.45 98.9083C216.899 99.5295 217.658 99.84 218.728 99.84Z" fill="url(#paint9_linear_48_18)"/>
<path d="M125.854 130.515V119.175H129.186C129.867 119.175 130.418 119.301 130.838 119.553C131.267 119.805 131.58 120.174 131.776 120.659C131.981 121.135 132.084 121.714 132.084 122.395C132.084 123.133 131.958 123.73 131.706 124.187C131.454 124.635 131.099 124.962 130.642 125.167C130.194 125.373 129.662 125.475 129.046 125.475H127.926V130.515H125.854ZM127.926 124.019H128.71C129.083 124.019 129.373 123.968 129.578 123.865C129.793 123.753 129.937 123.581 130.012 123.347C130.096 123.105 130.138 122.783 130.138 122.381C130.138 121.971 130.105 121.639 130.04 121.387C129.984 121.126 129.853 120.935 129.648 120.813C129.452 120.692 129.139 120.631 128.71 120.631H127.926V124.019ZM133.098 130.515V122.423H135.002V123.669C135.282 123.193 135.562 122.853 135.842 122.647C136.122 122.433 136.43 122.325 136.766 122.325C136.822 122.325 136.869 122.33 136.906 122.339C136.953 122.339 137.004 122.344 137.06 122.353V124.327C136.948 124.281 136.822 124.243 136.682 124.215C136.551 124.178 136.416 124.159 136.276 124.159C136.024 124.159 135.795 124.22 135.59 124.341C135.385 124.463 135.189 124.663 135.002 124.943V130.515H133.098ZM140.414 130.641C139.808 130.641 139.313 130.529 138.93 130.305C138.548 130.072 138.263 129.736 138.076 129.297C137.899 128.849 137.81 128.313 137.81 127.687V125.251C137.81 124.607 137.899 124.066 138.076 123.627C138.263 123.189 138.548 122.857 138.93 122.633C139.322 122.409 139.817 122.297 140.414 122.297C141.058 122.297 141.558 122.419 141.912 122.661C142.276 122.904 142.533 123.259 142.682 123.725C142.841 124.183 142.92 124.743 142.92 125.405V126.553H139.7V128.149C139.7 128.411 139.724 128.625 139.77 128.793C139.826 128.961 139.91 129.083 140.022 129.157C140.134 129.232 140.27 129.269 140.428 129.269C140.596 129.269 140.732 129.232 140.834 129.157C140.937 129.073 141.012 128.957 141.058 128.807C141.105 128.649 141.128 128.453 141.128 128.219V127.547H142.906V128.093C142.906 128.915 142.701 129.545 142.29 129.983C141.88 130.422 141.254 130.641 140.414 130.641ZM139.7 125.615H141.128V124.845C141.128 124.565 141.105 124.341 141.058 124.173C141.012 123.996 140.937 123.87 140.834 123.795C140.732 123.711 140.587 123.669 140.4 123.669C140.232 123.669 140.097 123.711 139.994 123.795C139.892 123.879 139.817 124.019 139.77 124.215C139.724 124.411 139.7 124.691 139.7 125.055V125.615ZM146.032 130.641C145.388 130.641 144.898 130.413 144.562 129.955C144.236 129.498 144.072 128.765 144.072 127.757V125.279C144.072 124.719 144.133 124.215 144.254 123.767C144.385 123.319 144.59 122.965 144.87 122.703C145.15 122.433 145.528 122.297 146.004 122.297C146.294 122.297 146.56 122.358 146.802 122.479C147.054 122.591 147.283 122.741 147.488 122.927V119.175H149.392V130.515H147.488V129.941C147.274 130.156 147.045 130.329 146.802 130.459C146.56 130.581 146.303 130.641 146.032 130.641ZM146.732 129.325C146.835 129.325 146.952 129.302 147.082 129.255C147.213 129.209 147.348 129.143 147.488 129.059V123.865C147.376 123.791 147.255 123.73 147.124 123.683C146.994 123.627 146.858 123.599 146.718 123.599C146.448 123.599 146.256 123.725 146.144 123.977C146.042 124.22 145.99 124.519 145.99 124.873V127.897C145.99 128.168 146.009 128.411 146.046 128.625C146.084 128.84 146.154 129.013 146.256 129.143C146.368 129.265 146.527 129.325 146.732 129.325ZM150.886 130.515V122.423H152.79V130.515H150.886ZM150.886 121.135V119.553H152.79V121.135H150.886ZM156.738 130.641C156.113 130.641 155.609 130.525 155.226 130.291C154.853 130.049 154.578 129.708 154.4 129.269C154.232 128.821 154.148 128.294 154.148 127.687V125.251C154.148 124.626 154.232 124.094 154.4 123.655C154.578 123.217 154.858 122.881 155.24 122.647C155.623 122.414 156.122 122.297 156.738 122.297C157.317 122.297 157.788 122.391 158.152 122.577C158.526 122.755 158.796 123.03 158.964 123.403C159.132 123.767 159.216 124.229 159.216 124.789V125.461H157.424V124.747C157.424 124.467 157.401 124.248 157.354 124.089C157.317 123.921 157.247 123.805 157.144 123.739C157.042 123.665 156.906 123.627 156.738 123.627C156.57 123.627 156.435 123.674 156.332 123.767C156.23 123.851 156.155 123.991 156.108 124.187C156.071 124.383 156.052 124.654 156.052 124.999V127.967C156.052 128.49 156.108 128.845 156.22 129.031C156.332 129.209 156.51 129.297 156.752 129.297C156.939 129.297 157.079 129.255 157.172 129.171C157.275 129.087 157.34 128.966 157.368 128.807C157.406 128.639 157.424 128.439 157.424 128.205V127.337H159.216V128.107C159.216 128.649 159.128 129.111 158.95 129.493C158.782 129.876 158.512 130.165 158.138 130.361C157.774 130.548 157.308 130.641 156.738 130.641ZM162.82 130.613C162.307 130.613 161.901 130.529 161.602 130.361C161.313 130.193 161.108 129.951 160.986 129.633C160.865 129.316 160.804 128.938 160.804 128.499V123.683H159.992V122.423H160.804V120.001H162.722V122.423H163.954V123.683H162.722V128.331C162.722 128.611 162.783 128.812 162.904 128.933C163.026 129.045 163.208 129.101 163.45 129.101C163.553 129.101 163.651 129.097 163.744 129.087C163.847 129.078 163.945 129.069 164.038 129.059V130.515C163.88 130.534 163.693 130.553 163.478 130.571C163.273 130.599 163.054 130.613 162.82 130.613ZM165.243 132.419L165.047 131.719C165.299 131.645 165.514 131.509 165.691 131.313C165.869 131.127 165.957 130.861 165.957 130.515H164.949V128.625H166.811V130.347C166.811 130.945 166.681 131.411 166.419 131.747C166.158 132.093 165.766 132.317 165.243 132.419ZM171.6 130.515V119.175H176.262V120.603H173.672V123.907H175.786V125.349H173.672V130.515H171.6ZM179.543 130.641C178.937 130.641 178.442 130.529 178.059 130.305C177.677 130.072 177.392 129.736 177.205 129.297C177.028 128.849 176.939 128.313 176.939 127.687V125.251C176.939 124.607 177.028 124.066 177.205 123.627C177.392 123.189 177.677 122.857 178.059 122.633C178.451 122.409 178.946 122.297 179.543 122.297C180.187 122.297 180.687 122.419 181.041 122.661C181.405 122.904 181.662 123.259 181.811 123.725C181.97 124.183 182.049 124.743 182.049 125.405V126.553H178.829V128.149C178.829 128.411 178.853 128.625 178.899 128.793C178.955 128.961 179.039 129.083 179.151 129.157C179.263 129.232 179.399 129.269 179.557 129.269C179.725 129.269 179.861 129.232 179.963 129.157C180.066 129.073 180.141 128.957 180.187 128.807C180.234 128.649 180.257 128.453 180.257 128.219V127.547H182.035V128.093C182.035 128.915 181.83 129.545 181.419 129.983C181.009 130.422 180.383 130.641 179.543 130.641ZM178.829 125.615H180.257V124.845C180.257 124.565 180.234 124.341 180.187 124.173C180.141 123.996 180.066 123.87 179.963 123.795C179.861 123.711 179.716 123.669 179.529 123.669C179.361 123.669 179.226 123.711 179.123 123.795C179.021 123.879 178.946 124.019 178.899 124.215C178.853 124.411 178.829 124.691 178.829 125.055V125.615ZM185.791 130.641C185.185 130.641 184.69 130.529 184.307 130.305C183.925 130.072 183.64 129.736 183.453 129.297C183.276 128.849 183.187 128.313 183.187 127.687V125.251C183.187 124.607 183.276 124.066 183.453 123.627C183.64 123.189 183.925 122.857 184.307 122.633C184.699 122.409 185.194 122.297 185.791 122.297C186.435 122.297 186.935 122.419 187.289 122.661C187.653 122.904 187.91 123.259 188.059 123.725C188.218 124.183 188.297 124.743 188.297 125.405V126.553H185.077V128.149C185.077 128.411 185.101 128.625 185.147 128.793C185.203 128.961 185.287 129.083 185.399 129.157C185.511 129.232 185.647 129.269 185.805 129.269C185.973 129.269 186.109 129.232 186.211 129.157C186.314 129.073 186.389 128.957 186.435 128.807C186.482 128.649 186.505 128.453 186.505 128.219V127.547H188.283V128.093C188.283 128.915 188.078 129.545 187.667 129.983C187.257 130.422 186.631 130.641 185.791 130.641ZM185.077 125.615H186.505V124.845C186.505 124.565 186.482 124.341 186.435 124.173C186.389 123.996 186.314 123.87 186.211 123.795C186.109 123.711 185.964 123.669 185.777 123.669C185.609 123.669 185.474 123.711 185.371 123.795C185.269 123.879 185.194 124.019 185.147 124.215C185.101 124.411 185.077 124.691 185.077 125.055V125.615ZM191.409 130.641C190.765 130.641 190.275 130.413 189.939 129.955C189.613 129.498 189.449 128.765 189.449 127.757V125.279C189.449 124.719 189.51 124.215 189.631 123.767C189.762 123.319 189.967 122.965 190.247 122.703C190.527 122.433 190.905 122.297 191.381 122.297C191.671 122.297 191.937 122.358 192.179 122.479C192.431 122.591 192.66 122.741 192.865 122.927V119.175H194.769V130.515H192.865V129.941C192.651 130.156 192.422 130.329 192.179 130.459C191.937 130.581 191.68 130.641 191.409 130.641ZM192.109 129.325C192.212 129.325 192.329 129.302 192.459 129.255C192.59 129.209 192.725 129.143 192.865 129.059V123.865C192.753 123.791 192.632 123.73 192.501 123.683C192.371 123.627 192.235 123.599 192.095 123.599C191.825 123.599 191.633 123.725 191.521 123.977C191.419 124.22 191.367 124.519 191.367 124.873V127.897C191.367 128.168 191.386 128.411 191.423 128.625C191.461 128.84 191.531 129.013 191.633 129.143C191.745 129.265 191.904 129.325 192.109 129.325ZM196.361 132.419L196.165 131.719C196.417 131.645 196.631 131.509 196.809 131.313C196.986 131.127 197.075 130.861 197.075 130.515H196.067V128.625H197.929V130.347C197.929 130.945 197.798 131.411 197.537 131.747C197.275 132.093 196.883 132.317 196.361 132.419ZM205.559 130.669C204.813 130.669 204.22 130.511 203.781 130.193C203.343 129.876 203.025 129.428 202.829 128.849C202.643 128.261 202.549 127.571 202.549 126.777V122.969C202.549 122.157 202.643 121.457 202.829 120.869C203.016 120.281 203.343 119.833 203.809 119.525C204.285 119.208 204.939 119.049 205.769 119.049C206.544 119.049 207.16 119.18 207.617 119.441C208.075 119.703 208.401 120.081 208.597 120.575C208.803 121.061 208.905 121.653 208.905 122.353V122.941H206.931V122.297C206.931 121.933 206.903 121.621 206.847 121.359C206.801 121.098 206.698 120.902 206.539 120.771C206.39 120.631 206.143 120.561 205.797 120.561C205.433 120.561 205.167 120.65 204.999 120.827C204.841 121.005 204.738 121.238 204.691 121.527C204.654 121.817 204.635 122.134 204.635 122.479V127.225C204.635 127.617 204.668 127.958 204.733 128.247C204.799 128.537 204.92 128.761 205.097 128.919C205.275 129.069 205.527 129.143 205.853 129.143C206.189 129.143 206.446 129.059 206.623 128.891C206.801 128.723 206.922 128.49 206.987 128.191C207.062 127.893 207.099 127.538 207.099 127.127V126.063H205.881V124.761H208.961V130.515H207.631L207.477 129.395C207.328 129.769 207.099 130.077 206.791 130.319C206.493 130.553 206.082 130.669 205.559 130.669ZM210.454 130.515V122.423H212.358V123.669C212.638 123.193 212.918 122.853 213.198 122.647C213.478 122.433 213.786 122.325 214.122 122.325C214.178 122.325 214.224 122.33 214.262 122.339C214.308 122.339 214.36 122.344 214.416 122.353V124.327C214.304 124.281 214.178 124.243 214.038 124.215C213.907 124.178 213.772 124.159 213.632 124.159C213.38 124.159 213.151 124.22 212.946 124.341C212.74 124.463 212.544 124.663 212.358 124.943V130.515H210.454ZM217.77 130.641C217.182 130.641 216.696 130.534 216.314 130.319C215.931 130.095 215.642 129.773 215.446 129.353C215.259 128.933 215.166 128.425 215.166 127.827V125.111C215.166 124.514 215.259 124.005 215.446 123.585C215.642 123.165 215.931 122.848 216.314 122.633C216.696 122.409 217.182 122.297 217.77 122.297C218.358 122.297 218.843 122.409 219.226 122.633C219.618 122.848 219.907 123.165 220.094 123.585C220.29 124.005 220.388 124.514 220.388 125.111V127.827C220.388 128.425 220.29 128.933 220.094 129.353C219.907 129.773 219.618 130.095 219.226 130.319C218.843 130.534 218.358 130.641 217.77 130.641ZM217.784 129.325C217.998 129.325 218.157 129.265 218.26 129.143C218.362 129.022 218.428 128.859 218.456 128.653C218.484 128.439 218.498 128.205 218.498 127.953V124.985C218.498 124.733 218.484 124.505 218.456 124.299C218.428 124.094 218.362 123.931 218.26 123.809C218.157 123.679 217.998 123.613 217.784 123.613C217.569 123.613 217.41 123.679 217.308 123.809C217.205 123.931 217.135 124.094 217.098 124.299C217.07 124.505 217.056 124.733 217.056 124.985V127.953C217.056 128.205 217.07 128.439 217.098 128.653C217.135 128.859 217.205 129.022 217.308 129.143C217.41 129.265 217.569 129.325 217.784 129.325ZM222.545 130.515L221.299 122.423H222.881L223.595 127.673L224.435 122.423H225.849L226.647 127.729L227.417 122.423H228.915L227.641 130.515H226.031L225.135 125.405L224.197 130.515H222.545Z" fill="url(#paint10_linear_48_18)"/>
<defs>
<linearGradient id="paint0_linear_48_18" x1="46.4875" y1="30.4464" x2="120.773" y2="32.9319" gradientUnits="userSpaceOnUse">
<stop stop-color="#FF6B35"/>
<stop offset="0.51041" stop-color="#F14F3F"/>
<stop offset="0.809445" stop-color="#E63946"/>
</linearGradient>
<linearGradient id="paint1_linear_48_18" x1="18.8875" y1="80.343" x2="61.7785" y2="82.9987" gradientUnits="userSpaceOnUse">
<stop stop-color="#FF6B35"/>
<stop offset="0.51041" stop-color="#F14F3F"/>
<stop offset="0.809445" stop-color="#E63946"/>
</linearGradient>
<linearGradient id="paint2_linear_48_18" x1="-8.28125" y1="64.7913" x2="173.225" y2="93.1001" gradientUnits="userSpaceOnUse">
<stop stop-color="#FF6B35"/>
<stop offset="0.51041" stop-color="#F14F3F"/>
<stop offset="0.809445" stop-color="#E63946"/>
</linearGradient>
<linearGradient id="paint3_linear_48_18" x1="16.8113" y1="46.1706" x2="67.8982" y2="54.8187" gradientUnits="userSpaceOnUse">
<stop stop-color="#FF6B35"/>
<stop offset="0.51041" stop-color="#F14F3F"/>
<stop offset="0.809445" stop-color="#E63946"/>
</linearGradient>
<linearGradient id="paint4_linear_48_18" x1="16.8113" y1="46.1706" x2="67.8982" y2="54.8187" gradientUnits="userSpaceOnUse">
<stop stop-color="#FF6B35"/>
<stop offset="0.51041" stop-color="#F14F3F"/>
<stop offset="0.809445" stop-color="#E63946"/>
</linearGradient>
<linearGradient id="paint5_linear_48_18" x1="73.6468" y1="36.9565" x2="78.5134" y2="3.36956" gradientUnits="userSpaceOnUse">
<stop stop-color="#FF6B35"/>
<stop offset="0.51041" stop-color="#F14F3F"/>
<stop offset="0.809445" stop-color="#E63946"/>
</linearGradient>
<linearGradient id="paint6_linear_48_18" x1="73.6468" y1="36.9565" x2="78.5134" y2="3.36956" gradientUnits="userSpaceOnUse">
<stop stop-color="#FF6B35"/>
<stop offset="0.51041" stop-color="#F14F3F"/>
<stop offset="0.809445" stop-color="#E63946"/>
</linearGradient>
<linearGradient id="paint7_linear_48_18" x1="46.8125" y1="10.5154" x2="220.353" y2="31.7364" gradientUnits="userSpaceOnUse">
<stop stop-color="#FF6B35"/>
<stop offset="0.51041" stop-color="#F14F3F"/>
<stop offset="0.809445" stop-color="#E63946"/>
</linearGradient>
<linearGradient id="paint8_linear_48_18" x1="46.8125" y1="10.5154" x2="220.353" y2="31.7364" gradientUnits="userSpaceOnUse">
<stop stop-color="#FF6B35"/>
<stop offset="0.51041" stop-color="#F14F3F"/>
<stop offset="0.809445" stop-color="#E63946"/>
</linearGradient>
<linearGradient id="paint9_linear_48_18" x1="20.8625" y1="54.7912" x2="611.656" y2="259.159" gradientUnits="userSpaceOnUse">
<stop stop-color="#FF6B35"/>
<stop offset="0.51041" stop-color="#F14F3F"/>
<stop offset="0.809445" stop-color="#E63946"/>
</linearGradient>
<linearGradient id="paint10_linear_48_18" x1="100.062" y1="117.136" x2="353.598" y2="316.933" gradientUnits="userSpaceOnUse">
<stop stop-color="#FF6B35"/>
<stop offset="0.51041" stop-color="#F14F3F"/>
<stop offset="0.809445" stop-color="#E63946"/>
</linearGradient>
</defs>
</svg>
