<svg width="104" height="105" viewBox="0 0 104 105" fill="none" xmlns="http://www.w3.org/2000/svg">
<path d="M51 104.515V35.0154C51 32.682 52.5 27.0154 58.5 23.0154C64.5 19.0154 68.6667 16.0154 70 15.0154" stroke="url(#paint0_linear_45_6)" stroke-width="6"/>
<path d="M21.5 103.515V80.6361C21.5 80.6361 22.5 75.5154 27 75.5154C31.5 75.5154 32.5 80.6361 32.5 80.6361V103.515" stroke="url(#paint1_linear_45_6)" stroke-width="4"/>
<path d="M3 104.515V76.0155C3 67.0154 14.5 56.5154 27.5 56.5154C39 56.5154 50.5 68.0154 50.5 76.0155V104.515" stroke="url(#paint2_linear_45_6)" stroke-width="6"/>
<path d="M22.7778 51.4228V53.2746V56.5154H30.1852V53.2746V51.4228H33.4259C33.4259 49.108 32.963 44.0154 26.9444 44.0154C20.9259 44.0154 20 49.108 20 51.4228H22.7778Z" fill="url(#paint3_linear_45_6)" stroke="url(#paint4_linear_45_6)" stroke-width="0.925926"/>
<mask id="path-5-inside-1_45_6" fill="white">
<path d="M76.4243 26.0648C75.5492 26.0745 74.6967 26.3414 73.9745 26.8316C73.2523 27.3219 72.6929 28.0135 72.367 28.8189C72.0411 29.6244 71.9633 30.5076 72.1435 31.3568C72.3237 32.206 72.7538 32.9831 73.3794 33.5898C74.005 34.1966 74.798 34.6056 75.6581 34.7654C76.5182 34.9251 77.4068 34.8283 78.2115 34.4872C79.0163 34.1461 79.701 33.576 80.1791 32.849C80.6572 32.122 80.9072 31.2708 80.8975 30.403L76.4732 30.4524L76.4243 26.0648Z"/>
</mask>
<path d="M76.4243 26.0648C75.5492 26.0745 74.6967 26.3414 73.9745 26.8316C73.2523 27.3219 72.6929 28.0135 72.367 28.8189C72.0411 29.6244 71.9633 30.5076 72.1435 31.3568C72.3237 32.206 72.7538 32.9831 73.3794 33.5898C74.005 34.1966 74.798 34.6056 75.6581 34.7654C76.5182 34.9251 77.4068 34.8283 78.2115 34.4872C79.0163 34.1461 79.701 33.576 80.1791 32.849C80.6572 32.122 80.9072 31.2708 80.8975 30.403L76.4732 30.4524L76.4243 26.0648Z" fill="url(#paint5_linear_45_6)" stroke="url(#paint6_linear_45_6)" stroke-width="2" mask="url(#path-5-inside-1_45_6)"/>
<path d="M57.5 0.515381V23.0154H83V42.5154C79 51.3154 72 52.182 69 52.0154V58.5154C81.4 58.1154 86.8333 50.3487 88 46.5154C89.6667 48.3487 94.5 49.0154 96.5 46.0154C98.5 43.0154 96 39.682 94.5 38.5154L102.5 30.5154H90V13.5154C89.6 4.31538 81.8333 1.34871 78 1.01538V13.5154C74.8 3.51538 63 0.682048 57.5 0.515381Z" fill="url(#paint7_linear_45_6)" stroke="url(#paint8_linear_45_6)"/>
<defs>
<linearGradient id="paint0_linear_45_6" x1="46.4875" y1="30.4464" x2="120.773" y2="32.9319" gradientUnits="userSpaceOnUse">
<stop stop-color="#FF6B35"/>
<stop offset="0.51041" stop-color="#F14F3F"/>
<stop offset="0.809445" stop-color="#E63946"/>
</linearGradient>
<linearGradient id="paint1_linear_45_6" x1="18.8875" y1="80.343" x2="61.7785" y2="82.9987" gradientUnits="userSpaceOnUse">
<stop stop-color="#FF6B35"/>
<stop offset="0.51041" stop-color="#F14F3F"/>
<stop offset="0.809445" stop-color="#E63946"/>
</linearGradient>
<linearGradient id="paint2_linear_45_6" x1="-8.28125" y1="64.7913" x2="173.225" y2="93.1001" gradientUnits="userSpaceOnUse">
<stop stop-color="#FF6B35"/>
<stop offset="0.51041" stop-color="#F14F3F"/>
<stop offset="0.809445" stop-color="#E63946"/>
</linearGradient>
<linearGradient id="paint3_linear_45_6" x1="16.8113" y1="46.1706" x2="67.8982" y2="54.8187" gradientUnits="userSpaceOnUse">
<stop stop-color="#FF6B35"/>
<stop offset="0.51041" stop-color="#F14F3F"/>
<stop offset="0.809445" stop-color="#E63946"/>
</linearGradient>
<linearGradient id="paint4_linear_45_6" x1="16.8113" y1="46.1706" x2="67.8982" y2="54.8187" gradientUnits="userSpaceOnUse">
<stop stop-color="#FF6B35"/>
<stop offset="0.51041" stop-color="#F14F3F"/>
<stop offset="0.809445" stop-color="#E63946"/>
</linearGradient>
<linearGradient id="paint5_linear_45_6" x1="73.6468" y1="36.9565" x2="78.5134" y2="3.36956" gradientUnits="userSpaceOnUse">
<stop stop-color="#FF6B35"/>
<stop offset="0.51041" stop-color="#F14F3F"/>
<stop offset="0.809445" stop-color="#E63946"/>
</linearGradient>
<linearGradient id="paint6_linear_45_6" x1="73.6468" y1="36.9565" x2="78.5134" y2="3.36956" gradientUnits="userSpaceOnUse">
<stop stop-color="#FF6B35"/>
<stop offset="0.51041" stop-color="#F14F3F"/>
<stop offset="0.809445" stop-color="#E63946"/>
</linearGradient>
<linearGradient id="paint7_linear_45_6" x1="46.8125" y1="10.5154" x2="220.353" y2="31.7364" gradientUnits="userSpaceOnUse">
<stop stop-color="#FF6B35"/>
<stop offset="0.51041" stop-color="#F14F3F"/>
<stop offset="0.809445" stop-color="#E63946"/>
</linearGradient>
<linearGradient id="paint8_linear_45_6" x1="46.8125" y1="10.5154" x2="220.353" y2="31.7364" gradientUnits="userSpaceOnUse">
<stop stop-color="#FF6B35"/>
<stop offset="0.51041" stop-color="#F14F3F"/>
<stop offset="0.809445" stop-color="#E63946"/>
</linearGradient>
</defs>
</svg>
