<svg width="230" height="119" viewBox="0 0 230 119" fill="none" xmlns="http://www.w3.org/2000/svg">
<path d="M51 104.515V35.0154C51 32.682 52.5 27.0154 58.5 23.0154C64.5 19.0154 68.6667 16.0154 70 15.0154" stroke="url(#paint0_linear_46_14)" stroke-width="6"/>
<path d="M21.5 103.515V80.6361C21.5 80.6361 22.5 75.5154 27 75.5154C31.5 75.5154 32.5 80.6361 32.5 80.6361V103.515" stroke="url(#paint1_linear_46_14)" stroke-width="4"/>
<path d="M3 104.515V76.0155C3 67.0154 14.5 56.5154 27.5 56.5154C39 56.5154 50.5 68.0154 50.5 76.0155V104.515" stroke="url(#paint2_linear_46_14)" stroke-width="6"/>
<path d="M22.7778 51.4228V53.2746V56.5154H30.1852V53.2746V51.4228H33.4259C33.4259 49.108 32.963 44.0154 26.9444 44.0154C20.9259 44.0154 20 49.108 20 51.4228H22.7778Z" fill="url(#paint3_linear_46_14)" stroke="url(#paint4_linear_46_14)" stroke-width="0.925926"/>
<mask id="path-5-inside-1_46_14" fill="white">
<path d="M76.4243 26.0648C75.5492 26.0745 74.6967 26.3414 73.9745 26.8316C73.2523 27.3219 72.6929 28.0135 72.367 28.8189C72.0411 29.6244 71.9633 30.5076 72.1435 31.3568C72.3237 32.206 72.7538 32.9831 73.3794 33.5898C74.005 34.1966 74.798 34.6056 75.6581 34.7654C76.5182 34.9251 77.4068 34.8283 78.2115 34.4872C79.0163 34.1461 79.701 33.576 80.1791 32.849C80.6572 32.122 80.9072 31.2708 80.8975 30.403L76.4732 30.4524L76.4243 26.0648Z"/>
</mask>
<path d="M76.4243 26.0648C75.5492 26.0745 74.6967 26.3414 73.9745 26.8316C73.2523 27.3219 72.6929 28.0135 72.367 28.8189C72.0411 29.6244 71.9633 30.5076 72.1435 31.3568C72.3237 32.206 72.7538 32.9831 73.3794 33.5898C74.005 34.1966 74.798 34.6056 75.6581 34.7654C76.5182 34.9251 77.4068 34.8283 78.2115 34.4872C79.0163 34.1461 79.701 33.576 80.1791 32.849C80.6572 32.122 80.9072 31.2708 80.8975 30.403L76.4732 30.4524L76.4243 26.0648Z" fill="url(#paint5_linear_46_14)" stroke="url(#paint6_linear_46_14)" stroke-width="2" mask="url(#path-5-inside-1_46_14)"/>
<path d="M57.5 0.515381V23.0154H83V42.5154C79 51.3154 72 52.182 69 52.0154V58.5154C81.4 58.1154 86.8333 50.3487 88 46.5154C89.6667 48.3487 94.5 49.0154 96.5 46.0154C98.5 43.0154 96 39.682 94.5 38.5154L102.5 30.5154H90V13.5154C89.6 4.31538 81.8333 1.34871 78 1.01538V13.5154C74.8 3.51538 63 0.682048 57.5 0.515381Z" fill="url(#paint7_linear_46_14)" stroke="url(#paint8_linear_46_14)"/>
<path d="M63.7953 113.351V73.595H69.3342V75.9762C69.9899 75.217 70.7836 74.5613 71.7154 74.0092C72.6472 73.457 73.7515 73.1809 75.0284 73.1809C76.5814 73.1809 77.8065 73.595 78.7037 74.4233C79.6355 75.217 80.3257 76.2351 80.7743 77.4774C81.223 78.6853 81.5163 79.9277 81.6544 81.2045C81.7924 82.4469 81.8614 83.5167 81.8614 84.414V91.6611C81.8614 93.7662 81.6544 95.7678 81.2402 97.6659C80.8261 99.5295 80.0669 101.048 78.9626 102.221C77.8927 103.36 76.3743 103.93 74.4072 103.93C73.3374 103.93 72.3884 103.671 71.5601 103.153C70.7319 102.601 69.9899 101.98 69.3342 101.289V113.351H63.7953ZM73.3201 99.5812C74.2864 99.5812 74.9766 99.2361 75.3908 98.5459C75.8049 97.8212 76.0637 96.8549 76.1672 95.6471C76.2708 94.4392 76.3225 93.1106 76.3225 91.6611V84.414C76.3225 83.1716 76.2535 82.0328 76.1155 80.9975C75.9774 79.9277 75.6841 79.0822 75.2355 78.461C74.7868 77.8398 74.0794 77.5292 73.1131 77.5292C72.3884 77.5292 71.6982 77.6845 71.0425 77.9951C70.3868 78.3057 69.8174 78.668 69.3342 79.0822V98.2353C69.8519 98.6149 70.4385 98.9428 71.0942 99.2189C71.7499 99.4604 72.4919 99.5812 73.3201 99.5812ZM95.1283 103.93C92.9196 103.93 91.1769 103.481 89.9 102.584C88.6231 101.686 87.7086 100.409 87.1564 98.753C86.6388 97.0965 86.38 95.1467 86.38 92.9035V84.2069C86.38 81.9638 86.6388 80.0139 87.1564 78.3574C87.7086 76.701 88.6231 75.4241 89.9 74.5268C91.1769 73.6296 92.9196 73.1809 95.1283 73.1809C97.3369 73.1809 99.0625 73.6296 100.305 74.5268C101.582 75.4241 102.479 76.701 102.997 78.3574C103.549 80.0139 103.825 81.9638 103.825 84.2069V92.9035C103.825 95.1467 103.549 97.0965 102.997 98.753C102.479 100.409 101.582 101.686 100.305 102.584C99.0625 103.481 97.3369 103.93 95.1283 103.93ZM95.1283 99.84C96.1981 99.84 96.9401 99.5295 97.3542 98.9083C97.8028 98.2871 98.0617 97.4761 98.1307 96.4753C98.2342 95.44 98.286 94.3702 98.286 93.2659V83.8963C98.286 82.7575 98.2342 81.6877 98.1307 80.6869C98.0617 79.6861 97.8028 78.8751 97.3542 78.2539C96.9401 77.5982 96.1981 77.2704 95.1283 77.2704C94.0585 77.2704 93.2993 77.5982 92.8506 78.2539C92.402 78.8751 92.1259 79.6861 92.0224 80.6869C91.9534 81.6877 91.9188 82.7575 91.9188 83.8963V93.2659C91.9188 94.3702 91.9534 95.44 92.0224 96.4753C92.1259 97.4761 92.402 98.2871 92.8506 98.9083C93.2993 99.5295 94.0585 99.84 95.1283 99.84ZM113.184 103.93C112.011 103.93 111.096 103.619 110.441 102.998C109.785 102.377 109.319 101.6 109.043 100.668C108.801 99.7365 108.681 98.7875 108.681 97.8212V73.595H114.22V96.1647C114.22 97.2345 114.375 98.08 114.685 98.7012C114.996 99.2879 115.634 99.5812 116.601 99.5812C117.222 99.5812 117.86 99.4087 118.516 99.0636C119.206 98.684 119.862 98.2353 120.483 97.7177V73.595H126.022V103.515H120.483V100.565C119.517 101.497 118.413 102.29 117.17 102.946C115.962 103.602 114.634 103.93 113.184 103.93ZM132.204 103.515V61.5855H137.743V103.515H132.204ZM151.488 103.93C149.935 103.93 148.675 103.636 147.709 103.049C146.777 102.463 146.087 101.635 145.638 100.565C145.224 99.4949 145.017 98.2353 145.017 96.7859V77.2704H141.859V73.595H145.017V64.8467H150.556V73.595H155.37V77.2704H150.556V96.4235C150.556 97.5969 150.746 98.4424 151.125 98.96C151.505 99.4432 152.23 99.6847 153.3 99.6847C153.576 99.6847 153.886 99.6675 154.231 99.633C154.611 99.5985 154.973 99.564 155.318 99.5295V103.619C154.628 103.722 153.99 103.791 153.403 103.826C152.816 103.895 152.178 103.93 151.488 103.93ZM159.595 103.515V73.595H165.134V77.8398C166.238 76.0108 167.343 74.7856 168.447 74.1645C169.551 73.5433 170.656 73.2327 171.76 73.2327C171.898 73.2327 172.019 73.2327 172.122 73.2327C172.26 73.2327 172.433 73.2499 172.64 73.2844V79.3928C172.226 79.2202 171.743 79.0822 171.191 78.9786C170.673 78.8406 170.138 78.7716 169.586 78.7716C168.723 78.7716 167.929 78.9786 167.205 79.3928C166.514 79.7724 165.824 80.5316 165.134 81.6704V103.515H159.595ZM176.434 103.515V73.595H181.973V103.515H176.434ZM176.434 69.1432V63.3455H181.973V69.1432H176.434ZM195.821 112.885C193.992 112.885 192.335 112.678 190.851 112.264C189.402 111.884 188.246 111.28 187.383 110.452C186.555 109.624 186.141 108.537 186.141 107.191C186.141 106.155 186.382 105.241 186.865 104.447C187.348 103.688 187.97 103.032 188.729 102.48C189.488 101.928 190.282 101.497 191.11 101.186L193.698 101.548C193.25 101.962 192.818 102.394 192.404 102.842C191.99 103.257 191.645 103.688 191.369 104.137C191.093 104.62 190.955 105.137 190.955 105.69C190.955 106.587 191.334 107.26 192.094 107.708C192.887 108.157 194.285 108.381 196.287 108.381C198.254 108.381 199.703 108.14 200.635 107.657C201.601 107.208 202.084 106.483 202.084 105.482C202.084 104.861 201.963 104.344 201.722 103.93C201.48 103.55 201.066 103.239 200.48 102.998C199.893 102.756 199.047 102.584 197.943 102.48L191.421 101.652C190.075 101.479 189.074 101.048 188.418 100.358C187.763 99.6675 187.435 98.9083 187.435 98.08C187.435 96.8377 187.78 95.7851 188.47 94.9223C189.195 94.0596 190.161 93.0933 191.369 92.0235L193.232 93.4729C193.025 93.749 192.767 94.1459 192.456 94.6635C192.145 95.1467 191.99 95.6298 191.99 96.1129C191.99 96.4926 192.18 96.8031 192.559 97.0447C192.974 97.2863 193.612 97.4416 194.475 97.5106L199.496 97.9765C201.843 98.1836 203.585 98.891 204.724 100.099C205.863 101.307 206.433 103.032 206.433 105.275C206.433 106.932 206.036 108.33 205.242 109.468C204.483 110.607 203.327 111.453 201.774 112.005C200.221 112.592 198.236 112.885 195.821 112.885ZM196.028 94.3012C193.992 94.3012 192.335 93.8525 191.058 92.9553C189.781 92.058 188.832 90.8156 188.211 89.2282C187.625 87.6407 187.331 85.8289 187.331 83.7928C187.331 81.4806 187.659 79.548 188.315 77.9951C188.97 76.4076 189.937 75.217 191.214 74.4233C192.525 73.595 194.13 73.1809 196.028 73.1809C197.995 73.1809 199.6 73.6813 200.842 74.6821C202.084 75.6484 202.999 76.9425 203.585 78.5645C204.172 80.1865 204.465 81.981 204.465 83.9481C204.465 85.9842 204.189 87.796 203.637 89.3835C203.12 90.9364 202.24 92.1443 200.997 93.007C199.789 93.8698 198.133 94.3012 196.028 94.3012ZM196.028 90.3152C196.787 90.3152 197.391 90.1772 197.84 89.9011C198.288 89.5905 198.616 89.1591 198.823 88.607C199.065 88.0548 199.22 87.3819 199.289 86.5881C199.392 85.7599 199.444 84.8281 199.444 83.7928C199.444 82.7575 199.41 81.8257 199.341 80.9975C199.272 80.1692 199.116 79.479 198.875 78.9269C198.633 78.3402 198.288 77.8916 197.84 77.581C197.391 77.2704 196.804 77.1151 196.08 77.1151C195.32 77.1151 194.699 77.2704 194.216 77.581C193.767 77.857 193.405 78.2884 193.129 78.8751C192.887 79.4273 192.715 80.1175 192.611 80.9457C192.542 81.774 192.508 82.723 192.508 83.7928C192.508 84.7246 192.542 85.5873 192.611 86.3811C192.715 87.1748 192.887 87.865 193.129 88.4517C193.37 89.0384 193.716 89.5042 194.164 89.8493C194.647 90.1599 195.269 90.3152 196.028 90.3152ZM203.43 78.6163L202.136 76.5457C202.412 76.0625 203.033 75.4586 204 74.7339C204.966 74.0092 206.001 73.4052 207.106 72.9221L208.555 76.5457C208.072 76.6492 207.416 76.839 206.588 77.1151C205.794 77.3912 205.069 77.6845 204.414 77.9951C203.758 78.2712 203.43 78.4782 203.43 78.6163ZM218.728 103.93C216.519 103.93 214.777 103.481 213.5 102.584C212.223 101.686 211.308 100.409 210.756 98.753C210.239 97.0965 209.98 95.1467 209.98 92.9035V84.2069C209.98 81.9638 210.239 80.0139 210.756 78.3574C211.308 76.701 212.223 75.4241 213.5 74.5268C214.777 73.6296 216.519 73.1809 218.728 73.1809C220.937 73.1809 222.662 73.6296 223.905 74.5268C225.181 75.4241 226.079 76.701 226.596 78.3574C227.149 80.0139 227.425 81.9638 227.425 84.2069V92.9035C227.425 95.1467 227.149 97.0965 226.596 98.753C226.079 100.409 225.181 101.686 223.905 102.584C222.662 103.481 220.937 103.93 218.728 103.93ZM218.728 99.84C219.798 99.84 220.54 99.5295 220.954 98.9083C221.403 98.2871 221.661 97.4761 221.73 96.4753C221.834 95.44 221.886 94.3702 221.886 93.2659V83.8963C221.886 82.7575 221.834 81.6877 221.73 80.6869C221.661 79.6861 221.403 78.8751 220.954 78.2539C220.54 77.5982 219.798 77.2704 218.728 77.2704C217.658 77.2704 216.899 77.5982 216.45 78.2539C216.002 78.8751 215.726 79.6861 215.622 80.6869C215.553 81.6877 215.519 82.7575 215.519 83.8963V93.2659C215.519 94.3702 215.553 95.44 215.622 96.4753C215.726 97.4761 216.002 98.2871 216.45 98.9083C216.899 99.5295 217.658 99.84 218.728 99.84Z" fill="url(#paint9_linear_46_14)"/>
<defs>
<linearGradient id="paint0_linear_46_14" x1="46.4875" y1="30.4464" x2="120.773" y2="32.9319" gradientUnits="userSpaceOnUse">
<stop stop-color="#FF6B35"/>
<stop offset="0.51041" stop-color="#F14F3F"/>
<stop offset="0.809445" stop-color="#E63946"/>
</linearGradient>
<linearGradient id="paint1_linear_46_14" x1="18.8875" y1="80.343" x2="61.7785" y2="82.9987" gradientUnits="userSpaceOnUse">
<stop stop-color="#FF6B35"/>
<stop offset="0.51041" stop-color="#F14F3F"/>
<stop offset="0.809445" stop-color="#E63946"/>
</linearGradient>
<linearGradient id="paint2_linear_46_14" x1="-8.28125" y1="64.7913" x2="173.225" y2="93.1001" gradientUnits="userSpaceOnUse">
<stop stop-color="#FF6B35"/>
<stop offset="0.51041" stop-color="#F14F3F"/>
<stop offset="0.809445" stop-color="#E63946"/>
</linearGradient>
<linearGradient id="paint3_linear_46_14" x1="16.8113" y1="46.1706" x2="67.8982" y2="54.8187" gradientUnits="userSpaceOnUse">
<stop stop-color="#FF6B35"/>
<stop offset="0.51041" stop-color="#F14F3F"/>
<stop offset="0.809445" stop-color="#E63946"/>
</linearGradient>
<linearGradient id="paint4_linear_46_14" x1="16.8113" y1="46.1706" x2="67.8982" y2="54.8187" gradientUnits="userSpaceOnUse">
<stop stop-color="#FF6B35"/>
<stop offset="0.51041" stop-color="#F14F3F"/>
<stop offset="0.809445" stop-color="#E63946"/>
</linearGradient>
<linearGradient id="paint5_linear_46_14" x1="73.6468" y1="36.9565" x2="78.5134" y2="3.36956" gradientUnits="userSpaceOnUse">
<stop stop-color="#FF6B35"/>
<stop offset="0.51041" stop-color="#F14F3F"/>
<stop offset="0.809445" stop-color="#E63946"/>
</linearGradient>
<linearGradient id="paint6_linear_46_14" x1="73.6468" y1="36.9565" x2="78.5134" y2="3.36956" gradientUnits="userSpaceOnUse">
<stop stop-color="#FF6B35"/>
<stop offset="0.51041" stop-color="#F14F3F"/>
<stop offset="0.809445" stop-color="#E63946"/>
</linearGradient>
<linearGradient id="paint7_linear_46_14" x1="46.8125" y1="10.5154" x2="220.353" y2="31.7364" gradientUnits="userSpaceOnUse">
<stop stop-color="#FF6B35"/>
<stop offset="0.51041" stop-color="#F14F3F"/>
<stop offset="0.809445" stop-color="#E63946"/>
</linearGradient>
<linearGradient id="paint8_linear_46_14" x1="46.8125" y1="10.5154" x2="220.353" y2="31.7364" gradientUnits="userSpaceOnUse">
<stop stop-color="#FF6B35"/>
<stop offset="0.51041" stop-color="#F14F3F"/>
<stop offset="0.809445" stop-color="#E63946"/>
</linearGradient>
<linearGradient id="paint9_linear_46_14" x1="20.8625" y1="54.7912" x2="611.656" y2="259.159" gradientUnits="userSpaceOnUse">
<stop stop-color="#FF6B35"/>
<stop offset="0.51041" stop-color="#F14F3F"/>
<stop offset="0.809445" stop-color="#E63946"/>
</linearGradient>
</defs>
</svg>
